<mxfile host="app.diagrams.net" modified="2023-09-09T06:54:29.105Z" agent="Mozilla/5.0 (Windows NT 10.0; Win64; x64) AppleWebKit/537.36 (KHTML, like Gecko) Chrome/116.0.0.0 Safari/537.36" etag="AgUAcgwJKfFuWI5laTqq" version="21.7.4" type="github">
  <diagram name="第 1 页" id="3LZvGKKyWewhh8zbcXn5">
    <mxGraphModel dx="636" dy="1667" grid="0" gridSize="10" guides="1" tooltips="1" connect="1" arrows="1" fold="1" page="1" pageScale="1" pageWidth="1920" pageHeight="1200" math="0" shadow="0">
      <root>
        <mxCell id="0" />
        <mxCell id="1" parent="0" />
        <mxCell id="FtCa5IqxH-QXSGiLLLDz-1" value="" style="childLayout=tableLayout;recursiveResize=0;shadow=0;fillColor=none;" vertex="1" parent="1">
          <mxGeometry x="205" y="146" width="762.7799072265625" height="234" as="geometry" />
        </mxCell>
        <mxCell id="FtCa5IqxH-QXSGiLLLDz-2" value="" style="shape=tableRow;horizontal=0;startSize=0;swimlaneHead=0;swimlaneBody=0;top=0;left=0;bottom=0;right=0;dropTarget=0;collapsible=0;recursiveResize=0;expand=0;fontStyle=0;fillColor=none;strokeColor=inherit;" vertex="1" parent="FtCa5IqxH-QXSGiLLLDz-1">
          <mxGeometry width="762.7799072265625" height="47" as="geometry" />
        </mxCell>
        <mxCell id="FtCa5IqxH-QXSGiLLLDz-3" value="分类" style="connectable=0;recursiveResize=0;strokeColor=inherit;fillColor=none;align=center;whiteSpace=wrap;html=1;" vertex="1" parent="FtCa5IqxH-QXSGiLLLDz-2">
          <mxGeometry width="274" height="47" as="geometry">
            <mxRectangle width="274" height="47" as="alternateBounds" />
          </mxGeometry>
        </mxCell>
        <mxCell id="FtCa5IqxH-QXSGiLLLDz-4" value="说明" style="connectable=0;recursiveResize=0;strokeColor=inherit;fillColor=none;align=center;whiteSpace=wrap;html=1;" vertex="1" parent="FtCa5IqxH-QXSGiLLLDz-2">
          <mxGeometry x="274" width="254" height="47" as="geometry">
            <mxRectangle width="254" height="47" as="alternateBounds" />
          </mxGeometry>
        </mxCell>
        <mxCell id="FtCa5IqxH-QXSGiLLLDz-5" value="语句" style="connectable=0;recursiveResize=0;strokeColor=inherit;fillColor=none;align=center;whiteSpace=wrap;html=1;" vertex="1" parent="FtCa5IqxH-QXSGiLLLDz-2">
          <mxGeometry x="528" width="235" height="47" as="geometry">
            <mxRectangle width="235" height="47" as="alternateBounds" />
          </mxGeometry>
        </mxCell>
        <mxCell id="FtCa5IqxH-QXSGiLLLDz-6" style="shape=tableRow;horizontal=0;startSize=0;swimlaneHead=0;swimlaneBody=0;top=0;left=0;bottom=0;right=0;dropTarget=0;collapsible=0;recursiveResize=0;expand=0;fontStyle=0;fillColor=none;strokeColor=inherit;" vertex="1" parent="FtCa5IqxH-QXSGiLLLDz-1">
          <mxGeometry y="47" width="762.7799072265625" height="46" as="geometry" />
        </mxCell>
        <mxCell id="FtCa5IqxH-QXSGiLLLDz-7" value="&lt;b&gt;数据定义语言 DDL&lt;/b&gt; &lt;font style=&quot;font-size: 11px;&quot;&gt;(&lt;font color=&quot;#ff3333&quot;&gt;Data Definition Language&lt;/font&gt;)&lt;/font&gt;" style="connectable=0;recursiveResize=0;strokeColor=inherit;fillColor=none;align=center;whiteSpace=wrap;html=1;" vertex="1" parent="FtCa5IqxH-QXSGiLLLDz-6">
          <mxGeometry width="274" height="46" as="geometry">
            <mxRectangle width="274" height="46" as="alternateBounds" />
          </mxGeometry>
        </mxCell>
        <mxCell id="FtCa5IqxH-QXSGiLLLDz-8" value="用来定义数据库对象(数据库，表， 字段)" style="connectable=0;recursiveResize=0;strokeColor=inherit;fillColor=none;align=center;whiteSpace=wrap;html=1;" vertex="1" parent="FtCa5IqxH-QXSGiLLLDz-6">
          <mxGeometry x="274" width="254" height="46" as="geometry">
            <mxRectangle width="254" height="46" as="alternateBounds" />
          </mxGeometry>
        </mxCell>
        <mxCell id="FtCa5IqxH-QXSGiLLLDz-9" value="CREATE、DROP、ALTER" style="connectable=0;recursiveResize=0;strokeColor=inherit;fillColor=none;align=center;whiteSpace=wrap;html=1;" vertex="1" parent="FtCa5IqxH-QXSGiLLLDz-6">
          <mxGeometry x="528" width="235" height="46" as="geometry">
            <mxRectangle width="235" height="46" as="alternateBounds" />
          </mxGeometry>
        </mxCell>
        <mxCell id="FtCa5IqxH-QXSGiLLLDz-10" style="shape=tableRow;horizontal=0;startSize=0;swimlaneHead=0;swimlaneBody=0;top=0;left=0;bottom=0;right=0;dropTarget=0;collapsible=0;recursiveResize=0;expand=0;fontStyle=0;fillColor=none;strokeColor=inherit;" vertex="1" parent="FtCa5IqxH-QXSGiLLLDz-1">
          <mxGeometry y="93" width="762.7799072265625" height="47" as="geometry" />
        </mxCell>
        <mxCell id="FtCa5IqxH-QXSGiLLLDz-11" value="&lt;b&gt;数据操作语言 DML&lt;/b&gt; (&lt;font color=&quot;#ff3333&quot;&gt;Data Manipulation Language&lt;/font&gt;)" style="connectable=0;recursiveResize=0;strokeColor=inherit;fillColor=none;align=center;whiteSpace=wrap;html=1;" vertex="1" parent="FtCa5IqxH-QXSGiLLLDz-10">
          <mxGeometry width="274" height="47" as="geometry">
            <mxRectangle width="274" height="47" as="alternateBounds" />
          </mxGeometry>
        </mxCell>
        <mxCell id="FtCa5IqxH-QXSGiLLLDz-12" value="用来对数据库表中的数据进行增删改" style="connectable=0;recursiveResize=0;strokeColor=inherit;fillColor=none;align=center;whiteSpace=wrap;html=1;" vertex="1" parent="FtCa5IqxH-QXSGiLLLDz-10">
          <mxGeometry x="274" width="254" height="47" as="geometry">
            <mxRectangle width="254" height="47" as="alternateBounds" />
          </mxGeometry>
        </mxCell>
        <mxCell id="FtCa5IqxH-QXSGiLLLDz-13" value="INSERT、UPDATE、DELETE" style="connectable=0;recursiveResize=0;strokeColor=inherit;fillColor=none;align=center;whiteSpace=wrap;html=1;" vertex="1" parent="FtCa5IqxH-QXSGiLLLDz-10">
          <mxGeometry x="528" width="235" height="47" as="geometry">
            <mxRectangle width="235" height="47" as="alternateBounds" />
          </mxGeometry>
        </mxCell>
        <mxCell id="FtCa5IqxH-QXSGiLLLDz-18" style="shape=tableRow;horizontal=0;startSize=0;swimlaneHead=0;swimlaneBody=0;top=0;left=0;bottom=0;right=0;dropTarget=0;collapsible=0;recursiveResize=0;expand=0;fontStyle=0;fillColor=none;strokeColor=inherit;" vertex="1" parent="FtCa5IqxH-QXSGiLLLDz-1">
          <mxGeometry y="140" width="762.7799072265625" height="47" as="geometry" />
        </mxCell>
        <mxCell id="FtCa5IqxH-QXSGiLLLDz-19" value="&lt;b&gt;数据查询语言 DQL&lt;/b&gt; (&lt;font color=&quot;#ff3333&quot;&gt;Data Query Language&lt;/font&gt;)" style="connectable=0;recursiveResize=0;strokeColor=inherit;fillColor=none;align=center;whiteSpace=wrap;html=1;" vertex="1" parent="FtCa5IqxH-QXSGiLLLDz-18">
          <mxGeometry width="274" height="47" as="geometry">
            <mxRectangle width="274" height="47" as="alternateBounds" />
          </mxGeometry>
        </mxCell>
        <mxCell id="FtCa5IqxH-QXSGiLLLDz-20" value="用来查询数据库中表的记录" style="connectable=0;recursiveResize=0;strokeColor=inherit;fillColor=none;align=center;whiteSpace=wrap;html=1;" vertex="1" parent="FtCa5IqxH-QXSGiLLLDz-18">
          <mxGeometry x="274" width="254" height="47" as="geometry">
            <mxRectangle width="254" height="47" as="alternateBounds" />
          </mxGeometry>
        </mxCell>
        <mxCell id="FtCa5IqxH-QXSGiLLLDz-21" value="SELECT" style="connectable=0;recursiveResize=0;strokeColor=inherit;fillColor=none;align=center;whiteSpace=wrap;html=1;" vertex="1" parent="FtCa5IqxH-QXSGiLLLDz-18">
          <mxGeometry x="528" width="235" height="47" as="geometry">
            <mxRectangle width="235" height="47" as="alternateBounds" />
          </mxGeometry>
        </mxCell>
        <mxCell id="FtCa5IqxH-QXSGiLLLDz-14" style="shape=tableRow;horizontal=0;startSize=0;swimlaneHead=0;swimlaneBody=0;top=0;left=0;bottom=0;right=0;dropTarget=0;collapsible=0;recursiveResize=0;expand=0;fontStyle=0;fillColor=none;strokeColor=inherit;" vertex="1" parent="FtCa5IqxH-QXSGiLLLDz-1">
          <mxGeometry y="187" width="762.7799072265625" height="47" as="geometry" />
        </mxCell>
        <mxCell id="FtCa5IqxH-QXSGiLLLDz-15" value="&lt;b&gt;数据控制语言 DCL&lt;/b&gt; (&lt;font color=&quot;#ff3333&quot;&gt;Data Control Language&lt;/font&gt;)" style="connectable=0;recursiveResize=0;strokeColor=inherit;fillColor=none;align=center;whiteSpace=wrap;html=1;" vertex="1" parent="FtCa5IqxH-QXSGiLLLDz-14">
          <mxGeometry width="274" height="47" as="geometry">
            <mxRectangle width="274" height="47" as="alternateBounds" />
          </mxGeometry>
        </mxCell>
        <mxCell id="FtCa5IqxH-QXSGiLLLDz-16" value="用来创建数据库用户、控制数据库的访问权限" style="connectable=0;recursiveResize=0;strokeColor=inherit;fillColor=none;align=center;whiteSpace=wrap;html=1;" vertex="1" parent="FtCa5IqxH-QXSGiLLLDz-14">
          <mxGeometry x="274" width="254" height="47" as="geometry">
            <mxRectangle width="254" height="47" as="alternateBounds" />
          </mxGeometry>
        </mxCell>
        <mxCell id="FtCa5IqxH-QXSGiLLLDz-17" value="GRANT、DENY、REVOKE" style="connectable=0;recursiveResize=0;strokeColor=inherit;fillColor=none;align=center;whiteSpace=wrap;html=1;" vertex="1" parent="FtCa5IqxH-QXSGiLLLDz-14">
          <mxGeometry x="528" width="235" height="47" as="geometry">
            <mxRectangle width="235" height="47" as="alternateBounds" />
          </mxGeometry>
        </mxCell>
        <mxCell id="FtCa5IqxH-QXSGiLLLDz-22" value="&lt;ul class=&quot;ul-list&quot; data-mark=&quot;-&quot; style=&quot;box-sizing: border-box; margin: 0.8em 0px; padding-left: 30px; position: relative; color: rgb(51, 51, 51); font-family: &amp;quot;Open Sans&amp;quot;, &amp;quot;Clear Sans&amp;quot;, &amp;quot;Helvetica Neue&amp;quot;, Helvetica, Arial, &amp;quot;Segoe UI Emoji&amp;quot;, sans-serif; font-size: 16px; font-style: normal; font-variant-ligatures: normal; font-variant-caps: normal; font-weight: 400; letter-spacing: normal; orphans: 2; text-align: start; text-indent: 0px; text-transform: none; widows: 2; word-spacing: 0px; -webkit-text-stroke-width: 0px; text-decoration-thickness: initial; text-decoration-style: initial; text-decoration-color: initial;&quot;&gt;&lt;li class=&quot;md-list-item&quot; style=&quot;box-sizing: border-box; margin: 0px; position: relative;&quot;&gt;&lt;p class=&quot;md-end-block md-p&quot; style=&quot;box-sizing: border-box; line-height: inherit; orphans: 4; margin: 0px 0px 0.5rem; position: relative;&quot;&gt;&lt;span class=&quot;md-pair-s&quot; style=&quot;box-sizing: border-box;&quot;&gt;&lt;strong style=&quot;box-sizing: border-box;&quot;&gt;&lt;span class=&quot;md-plain&quot; style=&quot;box-sizing: border-box;&quot;&gt;数据定义语言&lt;/span&gt;&lt;/strong&gt;&lt;/span&gt;&lt;span class=&quot;md-plain&quot; style=&quot;box-sizing: border-box;&quot;&gt;(&lt;/span&gt;&lt;span spellcheck=&quot;false&quot; class=&quot;md-pair-s&quot; style=&quot;box-sizing: border-box;&quot;&gt;&lt;code style=&quot;box-sizing: border-box; font-family: var(--monospace); text-align: left; vertical-align: initial; border: 1px solid rgb(231, 234, 237); background-color: rgb(243, 244, 244); border-radius: 3px; padding: 0px 2px; font-size: 0.9em;&quot;&gt;Data Definition Language&lt;/code&gt;&lt;/span&gt;&lt;span class=&quot;md-plain&quot; style=&quot;box-sizing: border-box;&quot;&gt;，&lt;/span&gt;&lt;span spellcheck=&quot;false&quot; class=&quot;md-pair-s&quot; style=&quot;box-sizing: border-box;&quot;&gt;&lt;code style=&quot;box-sizing: border-box; font-family: var(--monospace); text-align: left; vertical-align: initial; border: 1px solid rgb(231, 234, 237); background-color: rgb(243, 244, 244); border-radius: 3px; padding: 0px 2px; font-size: 0.9em;&quot;&gt;DDL&lt;/code&gt;&lt;/span&gt;&lt;span class=&quot;md-plain&quot; style=&quot;box-sizing: border-box;&quot;&gt;)：&lt;/span&gt;&lt;span spellcheck=&quot;false&quot; class=&quot;md-pair-s&quot; style=&quot;box-sizing: border-box;&quot;&gt;&lt;code style=&quot;box-sizing: border-box; font-family: var(--monospace); text-align: left; vertical-align: initial; border: 1px solid rgb(231, 234, 237); background-color: rgb(243, 244, 244); border-radius: 3px; padding: 0px 2px; font-size: 0.9em;&quot;&gt;CREATE&lt;/code&gt;&lt;/span&gt;&lt;span class=&quot;md-plain&quot; style=&quot;box-sizing: border-box;&quot;&gt; &lt;/span&gt;&lt;span spellcheck=&quot;false&quot; class=&quot;md-pair-s&quot; style=&quot;box-sizing: border-box;&quot;&gt;&lt;code style=&quot;box-sizing: border-box; font-family: var(--monospace); text-align: left; vertical-align: initial; border: 1px solid rgb(231, 234, 237); background-color: rgb(243, 244, 244); border-radius: 3px; padding: 0px 2px; font-size: 0.9em;&quot;&gt;DROP&lt;/code&gt;&lt;/span&gt;&lt;span class=&quot;md-plain&quot; style=&quot;box-sizing: border-box;&quot;&gt; &lt;/span&gt;&lt;span spellcheck=&quot;false&quot; class=&quot;md-pair-s&quot; style=&quot;box-sizing: border-box;&quot;&gt;&lt;code style=&quot;box-sizing: border-box; font-family: var(--monospace); text-align: left; vertical-align: initial; border: 1px solid rgb(231, 234, 237); background-color: rgb(243, 244, 244); border-radius: 3px; padding: 0px 2px; font-size: 0.9em;&quot;&gt;ALTER&lt;/code&gt;&lt;/span&gt;&lt;/p&gt;&lt;/li&gt;&lt;li class=&quot;md-list-item&quot; style=&quot;box-sizing: border-box; margin: 0px; position: relative;&quot;&gt;&lt;p class=&quot;md-end-block md-p&quot; style=&quot;box-sizing: border-box; line-height: inherit; orphans: 4; margin: 0px 0px 0.5rem; position: relative;&quot;&gt;&lt;span class=&quot;md-pair-s&quot; style=&quot;box-sizing: border-box;&quot;&gt;&lt;strong style=&quot;box-sizing: border-box;&quot;&gt;&lt;span class=&quot;md-plain&quot; style=&quot;box-sizing: border-box;&quot;&gt;数据操作语言&lt;/span&gt;&lt;/strong&gt;&lt;/span&gt;&lt;span class=&quot;md-plain&quot; style=&quot;box-sizing: border-box;&quot;&gt;(&lt;/span&gt;&lt;span spellcheck=&quot;false&quot; class=&quot;md-pair-s&quot; style=&quot;box-sizing: border-box;&quot;&gt;&lt;code style=&quot;box-sizing: border-box; font-family: var(--monospace); text-align: left; vertical-align: initial; border: 1px solid rgb(231, 234, 237); background-color: rgb(243, 244, 244); border-radius: 3px; padding: 0px 2px; font-size: 0.9em;&quot;&gt;Data Manipulation Language&lt;/code&gt;&lt;/span&gt;&lt;span class=&quot;md-plain&quot; style=&quot;box-sizing: border-box;&quot;&gt;，&lt;/span&gt;&lt;span spellcheck=&quot;false&quot; class=&quot;md-pair-s&quot; style=&quot;box-sizing: border-box;&quot;&gt;&lt;code style=&quot;box-sizing: border-box; font-family: var(--monospace); text-align: left; vertical-align: initial; border: 1px solid rgb(231, 234, 237); background-color: rgb(243, 244, 244); border-radius: 3px; padding: 0px 2px; font-size: 0.9em;&quot;&gt;DML&lt;/code&gt;&lt;/span&gt;&lt;span class=&quot;md-plain&quot; style=&quot;box-sizing: border-box;&quot;&gt;)：&lt;/span&gt;&lt;span spellcheck=&quot;false&quot; class=&quot;md-pair-s&quot; style=&quot;box-sizing: border-box;&quot;&gt;&lt;code style=&quot;box-sizing: border-box; font-family: var(--monospace); text-align: left; vertical-align: initial; border: 1px solid rgb(231, 234, 237); background-color: rgb(243, 244, 244); border-radius: 3px; padding: 0px 2px; font-size: 0.9em;&quot;&gt;INSERT&lt;/code&gt;&lt;/span&gt;&lt;span class=&quot;md-plain&quot; style=&quot;box-sizing: border-box;&quot;&gt; &lt;/span&gt;&lt;span spellcheck=&quot;false&quot; class=&quot;md-pair-s&quot; style=&quot;box-sizing: border-box;&quot;&gt;&lt;code style=&quot;box-sizing: border-box; font-family: var(--monospace); text-align: left; vertical-align: initial; border: 1px solid rgb(231, 234, 237); background-color: rgb(243, 244, 244); border-radius: 3px; padding: 0px 2px; font-size: 0.9em;&quot;&gt;UPDATE&lt;/code&gt;&lt;/span&gt;&lt;span class=&quot;md-plain&quot; style=&quot;box-sizing: border-box;&quot;&gt; &lt;/span&gt;&lt;span spellcheck=&quot;false&quot; class=&quot;md-pair-s&quot; style=&quot;box-sizing: border-box;&quot;&gt;&lt;code style=&quot;box-sizing: border-box; font-family: var(--monospace); text-align: left; vertical-align: initial; border: 1px solid rgb(231, 234, 237); background-color: rgb(243, 244, 244); border-radius: 3px; padding: 0px 2px; font-size: 0.9em;&quot;&gt;DELETE&lt;/code&gt;&lt;/span&gt;&lt;/p&gt;&lt;/li&gt;&lt;li class=&quot;md-list-item&quot; style=&quot;box-sizing: border-box; margin: 0px; position: relative;&quot;&gt;&lt;p class=&quot;md-end-block md-p&quot; style=&quot;box-sizing: border-box; line-height: inherit; orphans: 4; margin: 0px 0px 0.5rem; position: relative;&quot;&gt;&lt;span class=&quot;md-pair-s&quot; style=&quot;box-sizing: border-box;&quot;&gt;&lt;strong style=&quot;box-sizing: border-box;&quot;&gt;&lt;span class=&quot;md-plain&quot; style=&quot;box-sizing: border-box;&quot;&gt;数据查询语言&lt;/span&gt;&lt;/strong&gt;&lt;/span&gt;&lt;span class=&quot;md-plain&quot; style=&quot;box-sizing: border-box;&quot;&gt;(&lt;/span&gt;&lt;span spellcheck=&quot;false&quot; class=&quot;md-pair-s&quot; style=&quot;box-sizing: border-box;&quot;&gt;&lt;code style=&quot;box-sizing: border-box; font-family: var(--monospace); text-align: left; vertical-align: initial; border: 1px solid rgb(231, 234, 237); background-color: rgb(243, 244, 244); border-radius: 3px; padding: 0px 2px; font-size: 0.9em;&quot;&gt;Data Query Language&lt;/code&gt;&lt;/span&gt;&lt;span class=&quot;md-plain&quot; style=&quot;box-sizing: border-box;&quot;&gt;，&lt;/span&gt;&lt;span spellcheck=&quot;false&quot; class=&quot;md-pair-s&quot; style=&quot;box-sizing: border-box;&quot;&gt;&lt;code style=&quot;box-sizing: border-box; font-family: var(--monospace); text-align: left; vertical-align: initial; border: 1px solid rgb(231, 234, 237); background-color: rgb(243, 244, 244); border-radius: 3px; padding: 0px 2px; font-size: 0.9em;&quot;&gt;DQL&lt;/code&gt;&lt;/span&gt;&lt;span class=&quot;md-plain&quot; style=&quot;box-sizing: border-box;&quot;&gt;)：&lt;/span&gt;&lt;span spellcheck=&quot;false&quot; class=&quot;md-pair-s&quot; style=&quot;box-sizing: border-box;&quot;&gt;&lt;code style=&quot;box-sizing: border-box; font-family: var(--monospace); text-align: left; vertical-align: initial; border: 1px solid rgb(231, 234, 237); background-color: rgb(243, 244, 244); border-radius: 3px; padding: 0px 2px; font-size: 0.9em;&quot;&gt;SELECT&lt;/code&gt;&lt;/span&gt;&lt;/p&gt;&lt;/li&gt;&lt;li class=&quot;md-list-item&quot; style=&quot;box-sizing: border-box; margin: 0px; position: relative;&quot;&gt;&lt;p class=&quot;md-end-block md-p&quot; style=&quot;box-sizing: border-box; line-height: inherit; orphans: 4; margin: 0px 0px 0.5rem; position: relative;&quot;&gt;&lt;span class=&quot;md-pair-s&quot; style=&quot;box-sizing: border-box;&quot;&gt;&lt;strong style=&quot;box-sizing: border-box;&quot;&gt;&lt;span class=&quot;md-plain&quot; style=&quot;box-sizing: border-box;&quot;&gt;数据控制语言&lt;/span&gt;&lt;/strong&gt;&lt;/span&gt;&lt;span class=&quot;md-plain&quot; style=&quot;box-sizing: border-box;&quot;&gt;(&lt;/span&gt;&lt;span spellcheck=&quot;false&quot; class=&quot;md-pair-s&quot; style=&quot;box-sizing: border-box;&quot;&gt;&lt;code style=&quot;box-sizing: border-box; font-family: var(--monospace); text-align: left; vertical-align: initial; border: 1px solid rgb(231, 234, 237); background-color: rgb(243, 244, 244); border-radius: 3px; padding: 0px 2px; font-size: 0.9em;&quot;&gt;Data Control Language&lt;/code&gt;&lt;/span&gt;&lt;span class=&quot;md-plain&quot; style=&quot;box-sizing: border-box;&quot;&gt;，&lt;/span&gt;&lt;span spellcheck=&quot;false&quot; class=&quot;md-pair-s&quot; style=&quot;box-sizing: border-box;&quot;&gt;&lt;code style=&quot;box-sizing: border-box; font-family: var(--monospace); text-align: left; vertical-align: initial; border: 1px solid rgb(231, 234, 237); background-color: rgb(243, 244, 244); border-radius: 3px; padding: 0px 2px; font-size: 0.9em;&quot;&gt;DCL&lt;/code&gt;&lt;/span&gt;&lt;span class=&quot;md-plain&quot; style=&quot;box-sizing: border-box;&quot;&gt;)：&lt;/span&gt;&lt;span spellcheck=&quot;false&quot; class=&quot;md-pair-s&quot; style=&quot;box-sizing: border-box;&quot;&gt;&lt;code style=&quot;box-sizing: border-box; font-family: var(--monospace); text-align: left; vertical-align: initial; border: 1px solid rgb(231, 234, 237); background-color: rgb(243, 244, 244); border-radius: 3px; padding: 0px 2px; font-size: 0.9em;&quot;&gt;GRANT&lt;/code&gt;&lt;/span&gt;&lt;span class=&quot;md-plain&quot; style=&quot;box-sizing: border-box;&quot;&gt;、&lt;/span&gt;&lt;span spellcheck=&quot;false&quot; class=&quot;md-pair-s&quot; style=&quot;box-sizing: border-box;&quot;&gt;&lt;code style=&quot;box-sizing: border-box; font-family: var(--monospace); text-align: left; vertical-align: initial; border: 1px solid rgb(231, 234, 237); background-color: rgb(243, 244, 244); border-radius: 3px; padding: 0px 2px; font-size: 0.9em;&quot;&gt;DENY&lt;/code&gt;&lt;/span&gt;&lt;span class=&quot;md-plain&quot; style=&quot;box-sizing: border-box;&quot;&gt;、&lt;/span&gt;&lt;span spellcheck=&quot;false&quot; class=&quot;md-pair-s&quot; style=&quot;box-sizing: border-box;&quot;&gt;&lt;code style=&quot;box-sizing: border-box; font-family: var(--monospace); text-align: left; vertical-align: initial; border: 1px solid rgb(231, 234, 237); background-color: rgb(243, 244, 244); border-radius: 3px; padding: 0px 2px; font-size: 0.9em;&quot;&gt;REVOKE&lt;/code&gt;&lt;/span&gt;&lt;/p&gt;&lt;/li&gt;&lt;/ul&gt;&lt;br class=&quot;Apple-interchange-newline&quot;&gt;" style="text;whiteSpace=wrap;html=1;" vertex="1" parent="1">
          <mxGeometry x="164" y="-3" width="713" height="135" as="geometry" />
        </mxCell>
      </root>
    </mxGraphModel>
  </diagram>
</mxfile>
